<svg width="65" height="64" viewBox="0 0 65 64" fill="none" xmlns="http://www.w3.org/2000/svg">
<g filter="url(#filter0_d_2_74)">
<rect x="4.72681" y="2" width="56" height="56" rx="28" fill="white"/>
<rect x="5.22681" y="2.5" width="55" height="55" rx="27.5" stroke="#E2E4E9"/>
<path d="M34.8269 32.3646V34.5591C33.8766 34.2231 32.8595 34.1201 31.8611 34.2586C30.8627 34.3971 29.9121 34.7732 29.0891 35.3552C28.2662 35.9373 27.5949 36.7083 27.1316 37.6035C26.6684 38.4987 26.4267 39.492 26.4269 40.5L24.3269 40.499C24.3266 39.2168 24.6198 37.9516 25.184 36.8002C25.7483 35.6489 26.5686 34.642 27.5821 33.8567C28.5957 33.0714 29.7755 32.5286 31.0313 32.2697C32.2871 32.0109 33.5854 32.043 34.8269 32.3636V32.3646ZM32.7269 31.05C29.2462 31.05 26.4269 28.2308 26.4269 24.75C26.4269 21.2693 29.2462 18.45 32.7269 18.45C36.2077 18.45 39.0269 21.2693 39.0269 24.75C39.0269 28.2308 36.2077 31.05 32.7269 31.05ZM32.7269 28.95C35.0474 28.95 36.9269 27.0705 36.9269 24.75C36.9269 22.4295 35.0474 20.55 32.7269 20.55C30.4064 20.55 28.5269 22.4295 28.5269 24.75C28.5269 27.0705 30.4064 28.95 32.7269 28.95ZM39.6422 35.25L37.7218 33.3306L39.2075 31.8449L43.6616 36.3L39.2075 40.7552L37.7218 39.2694L39.6422 37.35H35.8769V35.25H39.6422Z" fill="#525866"/>
</g>
<defs>
<filter id="filter0_d_2_74" x="0.726807" y="0" width="64" height="64" filterUnits="userSpaceOnUse" color-interpolation-filters="sRGB">
<feFlood flood-opacity="0" result="BackgroundImageFix"/>
<feColorMatrix in="SourceAlpha" type="matrix" values="0 0 0 0 0 0 0 0 0 0 0 0 0 0 0 0 0 0 127 0" result="hardAlpha"/>
<feOffset dy="2"/>
<feGaussianBlur stdDeviation="2"/>
<feColorMatrix type="matrix" values="0 0 0 0 0.105882 0 0 0 0 0.109804 0 0 0 0 0.113725 0 0 0 0.04 0"/>
<feBlend mode="normal" in2="BackgroundImageFix" result="effect1_dropShadow_2_74"/>
<feBlend mode="normal" in="SourceGraphic" in2="effect1_dropShadow_2_74" result="shape"/>
</filter>
</defs>
</svg>
