<svg width="122" height="35" viewBox="0 0 122 35" fill="none" xmlns="http://www.w3.org/2000/svg">
<path d="M92.2267 0.379028C94.4769 0.379028 96.7265 0.379028 98.9755 0.379028C99.3123 0.379028 99.45 0.670529 99.6222 0.896394C103.031 5.38668 106.442 9.87504 109.855 14.3615C110.169 14.7727 110.123 15.0815 109.878 15.4811C106.714 20.6458 103.554 25.8124 100.401 30.9809C100.256 31.2203 100.173 31.5215 99.804 31.5215C97.2687 31.5215 94.7353 31.5215 92.0449 31.5215C93.2848 29.0601 94.4406 26.7474 95.6116 24.4424C97.1099 21.4984 98.6062 18.5564 100.135 15.6298C100.426 15.0719 100.367 14.651 100.059 14.1259C97.5532 9.87889 95.0656 5.61705 92.596 1.3404C92.4391 1.07786 92.1846 0.842343 92.2267 0.379028Z" fill="#FB8C00"/>
<path d="M107.375 27.6683L111.776 19.0178C112.35 17.875 112.911 16.7167 113.534 15.5951C113.81 15.099 113.737 14.738 113.466 14.2766C111.734 11.3519 110.021 8.41179 108.32 5.47361C108.049 5.00643 107.788 4.53347 107.427 3.89062C109.292 3.89062 111.02 3.89062 112.746 3.89062C113.029 3.89062 113.144 4.18791 113.295 4.38675C115.833 7.73226 118.356 11.0874 120.913 14.4252C121.229 14.8364 121.206 15.1241 120.959 15.5256C118.594 19.3775 116.234 23.2333 113.879 27.093C113.697 27.3922 113.544 27.6722 113.094 27.6722C111.246 27.6548 109.398 27.6683 107.375 27.6683Z" fill="#FB8C00"/>
<path d="M40.8303 8.3439C42.6596 5.5003 46.5095 5.51575 47.9102 8.55046C49.0123 6.61998 50.6847 5.94431 52.7646 6.32461C54.5844 6.65859 55.7841 8.07749 55.8262 9.99252C55.8874 12.757 55.8377 15.5233 55.8568 18.2936C55.8568 18.7723 55.7363 18.9847 55.2158 18.975C52.8354 18.9268 53.3349 19.2453 53.3023 17.1604C53.2698 15.0755 53.3138 13.0446 53.2832 10.9829C53.2679 9.9346 52.9732 8.99254 51.8691 8.5852C51.3731 8.39759 50.8324 8.36576 50.318 8.49394C49.8037 8.62211 49.3399 8.90427 48.9874 9.30334C48.5571 9.82841 48.3379 10.4974 48.3732 11.1778C48.3732 13.4616 48.3541 15.7453 48.3904 18.0272C48.3904 18.7028 48.2776 18.9924 47.5122 18.9827C45.8609 18.9461 45.8589 18.9924 45.8589 17.2801C45.8589 15.2222 45.8589 13.1643 45.8589 11.1025C45.8589 9.36511 45.0515 8.44813 43.5417 8.42111C42.12 8.39601 40.9719 9.5099 40.9413 11.0678C40.898 13.3844 40.898 15.7009 40.9413 18.0175C40.9585 18.7781 40.75 19.0136 39.9846 18.9827C38.119 18.8997 38.3792 19.2414 38.3715 17.336C38.3543 14.089 38.4117 10.84 38.339 7.59294C38.316 6.57558 38.6433 6.26477 39.5713 6.42114C39.6655 6.43853 39.7621 6.43853 39.8564 6.42114C40.6218 6.2918 40.8935 6.63156 40.7978 7.37673C40.7865 7.69949 40.7974 8.02265 40.8303 8.3439Z" fill="black"/>
<path d="M0.566118 10.2913C0.566118 7.75075 0.585263 5.21025 0.552734 2.66975C0.552734 2.02304 0.690493 1.76242 1.39082 1.77787C3.3349 1.8242 5.28091 1.77787 7.22499 1.80103C10.233 1.84543 12.4392 4.04618 12.5827 7.10212C12.7281 10.2488 10.7745 12.7005 7.77989 13.0152C6.5711 13.1235 5.35629 13.1468 4.1443 13.0847C3.36744 13.0557 3.17226 13.3395 3.20097 14.0789C3.25454 15.4591 3.18758 16.8452 3.22967 18.2275C3.24689 18.8336 3.03833 18.9784 2.46429 18.9842C0.564213 19.0054 0.564215 19.0286 0.564215 17.1425L0.566118 10.2913ZM3.22393 7.39555C3.22393 8.32797 3.22393 9.26038 3.22393 10.1928C3.22393 10.5133 3.17609 10.8723 3.6755 10.8511C4.91352 10.799 6.16302 10.9997 7.39146 10.7179C9.06575 10.3318 9.97656 9.03838 9.87897 7.22953C9.78138 5.42067 8.73088 4.25466 6.97623 4.11567C5.9621 4.03652 4.93839 4.10023 3.91469 4.05969C3.36169 4.03653 3.19905 4.25273 3.2201 4.79134C3.24688 5.65619 3.22201 6.5249 3.22393 7.39361V7.39555Z" fill="black"/>
<path d="M21.1511 17.0427C19.6892 18.9268 17.9345 19.5523 15.8087 18.9732C14.1861 18.5369 13.1834 17.2647 13.1126 15.6354C13.0361 13.8979 13.8072 12.7628 15.5121 12.118C16.8228 11.6219 18.2101 11.7107 19.5686 11.5679C20.0814 11.5138 20.8774 11.9231 21.0764 11.0215C21.1839 10.545 21.131 10.046 20.9263 9.60315C20.7215 9.16029 20.3765 8.79878 19.9456 8.57562C19.2817 8.25034 18.5214 8.18682 17.8135 8.3975C17.1057 8.60817 16.5012 9.07787 16.1187 9.71459C15.9024 10.0698 13.9258 10.3323 13.6771 10.0254C13.5106 9.82076 13.6618 9.59298 13.7115 9.38448C14.0846 7.77254 15.5599 6.56212 17.5786 6.27448C18.6247 6.11333 19.6931 6.18449 20.7091 6.48297C22.4962 7.02158 23.6003 8.32851 23.6424 10.203C23.7056 12.9057 23.6424 15.6083 23.673 18.311C23.673 18.8206 23.4817 18.9558 22.9995 18.977C21.2697 19.0562 21.2697 19.0735 21.1511 17.0427ZM19.45 13.3748C18.5641 13.452 17.5959 13.4018 16.6965 13.7995C16.3949 13.9127 16.135 14.1168 15.9522 14.3841C15.7695 14.6514 15.6726 14.9689 15.6747 15.2937C15.6642 15.6178 15.7495 15.9378 15.9199 16.2129C16.0903 16.4879 16.338 16.7056 16.6315 16.838C18.0857 17.6102 20.1924 16.8574 20.8621 15.3419C21.5146 13.8613 21.1702 13.3188 19.6127 13.3728L19.45 13.3748Z" fill="black"/>
<path d="M64.6408 13.3728C63.4315 13.3728 62.2203 13.396 61.0052 13.3631C60.4522 13.3496 60.2896 13.5176 60.3546 14.0851C60.5154 15.5098 61.3745 16.6392 62.6508 16.9808C64.1108 17.3824 65.4693 16.9268 66.2959 15.7608C66.5715 15.3747 68.3874 15.0465 68.7337 15.3477C69.0073 15.589 68.8217 15.8805 68.7165 16.1314C67.8937 18.1005 66.2864 18.9905 64.3002 19.1507C59.4132 19.5368 56.5392 15.3979 58.0929 10.2802C59.2027 6.61226 63.2248 5.03699 66.4816 6.99836C68.6744 8.32073 69.1929 10.8786 69.0705 12.9481C69.0399 13.4539 68.6667 13.3554 68.3682 13.3573C67.1264 13.3766 65.8846 13.3728 64.6408 13.3728ZM63.4028 11.5311C64.2581 11.5311 65.1249 11.5311 65.9726 11.5311C66.449 11.5311 66.5466 11.3381 66.4682 10.8748C66.1945 9.36126 65.0752 8.34776 63.5827 8.31108C62.8623 8.28559 62.1557 8.51467 61.5848 8.95876C61.014 9.40285 60.6148 10.0341 60.4561 10.7435C60.3259 11.34 60.5154 11.5639 61.1181 11.5388C61.8778 11.5022 62.6412 11.535 63.4028 11.5311Z" fill="black"/>
<path d="M31.088 16.3764C31.9281 13.6737 32.7642 11.029 33.5756 8.37071C34.1879 6.38232 34.1783 6.37845 36.2544 6.42864C36.4113 6.42864 36.5663 6.45567 36.8284 6.47884C36.373 7.79735 35.9463 9.06568 35.5005 10.3263C34.3767 13.5026 33.249 16.6763 32.1175 19.8474C31.0823 22.7431 29.7429 23.7083 27.0832 23.6466C26.2221 23.6273 26.2719 23.1466 26.3006 22.5887C26.3254 22.0925 26.0824 21.5076 27.02 21.4922C28.9143 21.4613 29.8902 19.9304 29.2358 18.1119C27.948 14.4845 26.6641 10.8552 25.3438 7.23945C25.1142 6.61204 25.1352 6.40935 25.8738 6.41128C27.8045 6.41128 27.8064 6.38425 28.3747 8.21627C29.1248 10.6371 29.8673 13.0618 30.6288 15.4787C30.7321 15.7702 30.7321 16.1351 31.088 16.3764Z" fill="black"/>
<path d="M73.5217 8.45965C74.7807 6.4674 76.501 5.96741 78.4967 6.33613C80.3183 6.66431 81.5027 7.9365 81.6711 9.82643C81.9256 12.6797 81.7305 15.5464 81.7726 18.4055C81.7726 18.7916 81.631 18.9499 81.2176 18.9846C79.2142 19.1777 79.1913 19.1777 79.1913 17.1873C79.1913 15.2569 79.1913 13.3264 79.1913 11.3959C79.1913 9.46544 78.3704 8.51371 76.6751 8.45C74.9797 8.3863 73.7054 9.54072 73.6537 11.3457C73.5925 13.531 73.5944 15.7202 73.6537 17.9093C73.6728 18.7414 73.4758 19.1255 72.6071 18.9769C72.3856 18.9441 72.1607 18.9441 71.9392 18.9769C71.2619 19.0695 71.0744 18.7684 71.0782 18.1082C71.105 14.5046 71.105 10.9011 71.0782 7.2975C71.0782 6.65659 71.2179 6.3091 71.9163 6.42107C71.9799 6.42686 72.044 6.42686 72.1076 6.42107C73.4643 6.42107 73.4643 6.42107 73.4892 7.78592C73.4853 7.93843 73.4987 8.08707 73.5217 8.45965Z" fill="black"/>
<path d="M84.9497 12.8189C84.9497 11.5313 84.9076 10.4695 84.9631 9.41355C85.0014 8.69541 84.7718 8.4155 84.0561 8.49079C83.7787 8.51974 83.3214 8.66839 83.2391 8.24561C83.13 7.69157 83.0248 7.06416 83.3003 6.55838C83.4668 6.25336 83.9547 6.42518 84.2896 6.43869C84.7794 6.45799 84.9976 6.29776 84.9535 5.78426C84.9248 5.43291 84.9535 5.0777 84.9535 4.72443C84.9535 3.49857 84.9535 3.49278 86.203 3.5005C87.686 3.51015 87.5425 3.33255 87.5539 4.82095C87.5539 6.40201 87.5539 6.39236 89.0847 6.43676C89.3602 6.43676 89.8195 6.2437 89.8692 6.70895C89.9305 7.26493 90.1046 7.90392 89.7583 8.38075C89.5439 8.67997 89.0292 8.53132 88.6638 8.49271C87.8103 8.39811 87.5004 8.68576 87.5367 9.59308C87.6075 11.4521 87.5463 13.317 87.5616 15.1799C87.575 16.5911 87.8448 16.8883 89.2321 16.9173C89.7238 16.9289 89.9974 17.0582 89.8807 17.5544C89.764 18.0505 90.3457 18.8594 89.3277 18.9945C88.6279 19.086 87.9184 19.071 87.2229 18.9501C85.9926 18.7397 85.3094 18.064 85.0779 16.815C84.8119 15.4193 85.0148 14.0004 84.9497 12.8189Z" fill="black"/>
<path d="M43.1702 26.2085H43.4572C45.43 26.2085 45.43 26.2085 45.1391 28.1776C44.8712 29.9884 43.7289 31.1428 41.8862 31.4594C39.8962 31.8089 37.9694 31 37.1217 29.3803C36.6535 28.5144 36.3945 27.5493 36.3659 26.5634C36.3373 25.5774 36.5399 24.5986 36.9571 23.7066C37.6881 22.0445 39.0983 21.3051 40.874 21.2878C42.5961 21.2723 43.9949 21.8901 44.7966 23.5117C44.942 23.8032 45.3554 24.3225 44.9191 24.4769C44.4828 24.6313 43.8322 24.863 43.4055 24.1584C42.5196 22.6989 41.161 22.2472 39.747 22.8611C38.4726 23.4151 37.8641 24.834 38.0134 26.9151C38.1339 28.5772 38.9223 29.7066 40.2234 30.0714C41.7886 30.5096 43.373 29.6062 43.6485 28.1545C43.7461 27.6371 43.6237 27.4325 43.0917 27.4672C42.6803 27.4942 42.2632 27.4556 41.8499 27.4672C41.404 27.4904 41.1304 27.4054 41.14 26.8495C41.14 26.3321 41.3619 26.1699 41.8346 26.1912C42.3072 26.2124 42.732 26.2105 43.1702 26.2085Z" fill="#FB8C00"/>
<path d="M67.7329 29.442C68.1156 27.9575 68.527 26.4788 68.8924 24.9904C69.0302 24.4325 69.2139 24.1197 69.8893 24.1274C70.5648 24.1352 70.6547 24.4942 70.7848 24.9923C71.1509 26.5081 71.6026 28.0015 72.1377 29.4652C72.4955 27.9498 72.9031 26.444 73.192 24.9151C73.324 24.2278 73.6627 24.1101 74.2463 24.1429C74.6424 24.168 74.8318 24.2298 74.6998 24.7047C74.1296 26.7458 73.5791 28.7908 73.0485 30.8397C72.8973 31.4188 72.4897 31.3281 72.0917 31.3552C71.6325 31.3841 71.3168 31.3069 71.179 30.776C70.7963 29.2857 70.3677 27.8089 69.9582 26.3359C69.6004 26.3533 69.6578 26.6351 69.6042 26.8243C69.2541 28.0579 68.8867 29.2895 68.5805 30.5347C68.4389 31.1138 68.2208 31.3764 67.5664 31.3899C66.912 31.4034 66.7168 31.0791 66.5733 30.5289C66.0873 28.666 65.5534 26.8147 65.0731 24.9518C65.0138 24.722 64.6598 24.2568 65.209 24.2047C65.6319 24.1641 66.2595 23.8417 66.4413 24.6564C66.7972 26.2529 67.1818 27.8417 67.5549 29.4343L67.7329 29.442Z" fill="#FB8C00"/>
<path d="M50.9105 30.2954C49.7624 31.4422 48.6908 31.7935 47.426 31.2182C46.5688 30.8321 46.2129 30.1294 46.2397 29.2086C46.2665 28.3379 46.7295 27.7781 47.5064 27.4615C48.2833 27.1449 49.1214 27.1507 49.9442 27.0754C50.2503 27.0484 50.721 27.2685 50.8186 26.7588C50.8815 26.5063 50.8618 26.2399 50.7625 25.9996C50.6632 25.7592 50.4896 25.5576 50.2675 25.4249C49.9182 25.2282 49.5122 25.1593 49.1183 25.2296C48.7244 25.3 48.3666 25.5053 48.1053 25.811C47.9848 25.9538 47.8929 26.1971 47.7475 26.2318C47.3859 26.3245 46.9151 26.4461 46.6549 26.1739C46.3947 25.9017 46.674 25.5098 46.8462 25.2087C47.4643 24.1932 49.0219 23.728 50.4455 24.1179C51.7313 24.4693 52.2862 25.2202 52.2996 26.6604C52.3111 27.9441 52.2996 29.2279 52.2996 30.5213C52.2996 30.9229 52.403 31.3591 51.7256 31.3746C51.1114 31.3862 50.7287 31.28 50.9105 30.2954ZM49.7873 28.1546L49.0544 28.2183C48.333 28.282 47.715 28.4885 47.7551 29.3766C47.7877 30.0426 48.5205 30.4113 49.3816 30.2472C49.7936 30.1908 50.1711 29.9849 50.4436 29.668C50.7574 29.282 50.9813 28.8051 50.8014 28.3399C50.5947 27.8225 50.0819 28.2434 49.7873 28.1546Z" fill="#FB8C00"/>
<path d="M79.989 30.3492C78.9538 31.3434 77.9664 31.7488 76.7762 31.3144C75.8712 30.9901 75.3737 30.3492 75.345 29.3627C75.3163 28.3763 75.7927 27.7894 76.6519 27.4438C77.4383 27.1272 78.2707 27.1408 79.0973 27.0751C79.3939 27.05 79.8627 27.2682 79.9316 26.7141C79.9768 26.4918 79.9597 26.2611 79.8823 26.048C79.8049 25.8349 79.6703 25.6478 79.4934 25.5076C78.86 25.0095 77.7923 25.1331 77.2393 25.774C77.1379 25.8937 77.0958 26.1041 76.9752 26.1601C76.5925 26.3531 76.0989 26.4188 75.7946 26.1736C75.4904 25.9284 75.7659 25.5192 75.9439 25.2219C76.5639 24.1833 78.1692 23.7161 79.6369 24.1331C80.873 24.4844 81.4126 25.2257 81.426 26.6311C81.4375 27.8859 81.4413 29.1407 81.426 30.3955C81.426 30.7951 81.6288 31.3222 80.8634 31.3608C80.2109 31.3994 79.8971 31.2025 79.989 30.3492ZM79.5259 28.0635C78.705 28.1716 78.1348 28.2083 77.5818 28.3338C77.3923 28.3686 77.2194 28.4654 77.0898 28.6091C76.9601 28.7528 76.8809 28.9355 76.8643 29.1291C76.8345 29.3189 76.8634 29.5133 76.9469 29.686C77.0304 29.8587 77.1646 30.0013 77.3312 30.0944C78.2726 30.687 79.7689 29.9882 79.9296 28.8763C80.0004 28.384 79.9756 27.9438 79.5259 28.0635Z" fill="#FB8C00"/>
<path d="M57.7595 27.7646C57.7442 26.2492 58.1939 24.9519 59.6577 24.2898C61.9634 23.2415 64.3878 24.977 64.2711 27.5349C64.25 28.0195 64.0567 28.1295 63.6358 28.1256C62.4265 28.1121 61.2152 28.1527 60.0002 28.1121C59.2348 28.087 59.1277 28.4248 59.3381 29.0542C59.7514 30.2916 61.464 30.7144 62.3997 29.8051C62.5126 29.6951 62.591 29.5407 62.6944 29.4287C62.8562 29.2732 63.0652 29.1773 63.2877 29.1563C63.5102 29.1352 63.7333 29.1904 63.9209 29.3129C64.3036 29.5677 63.94 29.9905 63.7295 30.2781C62.9642 31.3186 61.5405 31.7414 60.1093 31.365C58.7928 31.0194 57.9298 29.9905 57.7557 28.531C57.7417 28.2757 57.743 28.0198 57.7595 27.7646ZM60.9378 27.0832C61.3205 27.0832 61.7032 27.06 62.0859 27.0832C62.88 27.145 62.8302 26.7434 62.5853 26.2106C62.46 25.9335 62.2643 25.6948 62.0181 25.5187C61.7718 25.3426 61.4837 25.2353 61.183 25.2079C60.8824 25.1804 60.5799 25.2337 60.3063 25.3624C60.0327 25.491 59.7977 25.6904 59.6252 25.9403C59.4242 26.226 59.1755 26.5639 59.3305 26.9056C59.4855 27.2473 59.893 27.0407 60.1877 27.0754C60.4374 27.0931 60.6878 27.0957 60.9378 27.0832Z" fill="#FB8C00"/>
<path d="M85.6928 29.9284C86.2668 28.0559 86.749 26.469 87.258 24.8918C87.346 24.6216 87.3173 24.193 87.7613 24.1737C88.144 24.1563 88.5994 24.0019 88.8634 24.2779C89.0873 24.5096 88.7869 24.8783 88.6855 25.1698C87.8799 27.469 87.0801 29.7701 86.2362 32.0539C85.689 33.5326 84.9351 34.0732 83.6454 34.0403C83.3392 34.0403 82.9738 34.1195 82.9776 33.606C82.9776 33.2199 82.9202 32.9052 83.5057 32.8106C84.6194 32.633 84.9925 31.8744 84.6002 30.747C83.9477 28.8705 83.2608 27.0096 82.6198 25.1254C82.526 24.8474 82.0132 24.3532 82.6198 24.2084C83.1135 24.081 83.8157 23.8571 84.0644 24.7876C84.4624 26.2721 84.9657 27.7277 85.4268 29.1949C85.4727 29.3474 85.534 29.4941 85.6928 29.9284Z" fill="#FB8C00"/>
<path d="M54.143 27.7779C54.143 27.1987 54.1315 26.6196 54.143 26.0404C54.1545 25.6196 54.1296 25.2683 53.5594 25.3069C53.1403 25.3358 53.1365 25.0173 53.1442 24.7161C53.1442 24.4632 53.1059 24.137 53.4867 24.1659C54.1755 24.2123 54.1736 23.7683 54.1392 23.2953C54.0971 22.749 54.1698 22.4189 54.8778 22.4034C55.6431 22.388 55.7235 22.7567 55.6431 23.3358C55.5589 23.9575 55.7905 24.2374 56.4277 24.1544C56.8103 24.1042 57.0017 24.247 57.0017 24.6852C57.0017 25.1235 56.8831 25.3821 56.4104 25.3126C55.7541 25.2161 55.6087 25.5366 55.6317 26.135C55.6699 27.1601 55.6431 28.1871 55.6431 29.2122C55.6431 29.7682 55.8345 30.1774 56.4544 30.162C56.9864 30.1427 56.973 30.4458 56.9883 30.83C57.0055 31.272 56.7759 31.3512 56.4143 31.3879C54.9122 31.5365 54.1966 30.9303 54.143 29.4091C54.1277 28.8763 54.1449 28.3242 54.143 27.7779Z" fill="#FB8C00"/>
</svg>
